<svg width="24" height="24" viewBox="0 0 24 24" fill="none" xmlns="http://www.w3.org/2000/svg">
<g clip-path="url(#clip0_923_838)">
<path d="M18.6743 4.36L18.6418 4.85895L18.6419 4.85895L18.6422 4.85897L18.6434 4.85904L18.6479 4.85934L18.6654 4.86048L18.732 4.8648L18.9705 4.88021C19.1684 4.89297 19.4334 4.90998 19.7021 4.927C20.0535 4.94925 20.4317 4.97294 20.6641 4.98596C20.6644 4.98725 20.6646 4.98854 20.6648 4.98984L20.7629 5.56574C20.8465 6.05807 20.9647 6.75535 21.1059 7.58905C21.3883 9.25641 21.7625 11.4691 22.136 13.6783C22.5095 15.8876 22.8822 18.0933 23.1616 19.7467L23.4991 21.744L23.5453 22.0179L16.3772 23.3747L17.343 3.86622C17.4256 3.9374 17.5108 4.01099 17.595 4.08391C17.7884 4.25125 17.9759 4.41441 18.1152 4.53577L18.2825 4.68165L18.3289 4.72219L18.3411 4.73281L18.3442 4.73552L18.3449 4.7362L18.3451 4.73636L18.3452 4.73641L18.6743 4.36ZM18.6743 4.36L18.3452 4.73642L18.4727 4.84794L18.6418 4.85895L18.6743 4.36ZM15.0269 23.4158L0.566431 21.0394L0.580994 20.9407L0.809367 19.3937C0.998736 18.1114 1.25212 16.3969 1.50818 14.668C2.02187 11.1995 2.54239 7.7003 2.58304 7.48121L2.58507 7.47024L2.58662 7.45919C2.61007 7.29136 2.62406 7.20608 2.6398 7.15002C2.63996 7.14943 2.64012 7.14886 2.64028 7.14829C2.65265 7.14245 2.67109 7.13446 2.69754 7.1246C2.78482 7.09208 2.90788 7.05689 3.10679 7.00197L3.12145 6.99792L3.13545 6.99312C3.13545 6.99313 3.13958 6.99177 3.15007 6.98858L3.19529 6.9752C3.2335 6.96409 3.28498 6.94945 3.34928 6.93142C3.4777 6.89542 3.65363 6.84691 3.86953 6.78798C4.30113 6.67016 4.88967 6.51139 5.57149 6.32902L5.84991 6.25454L5.8578 6.22532L6.6711 6.01975C7.39866 5.83586 8.12289 5.64196 8.84352 5.43812L9.13293 5.35626L9.18642 5.10779L9.14276 5.34156L9.91175 5.13248C10.5132 4.96897 11.1223 4.80571 11.712 4.64765C12.0306 4.56226 12.3435 4.47839 12.6466 4.39681L12.9423 4.31719V4.32476L13.5768 4.14757C13.7776 4.09148 13.9757 4.0373 14.1675 3.9848C14.4266 3.91392 14.6745 3.8461 14.9031 3.78075L15.3413 3.6555L15.346 3.66756L15.7808 3.54674C15.8683 3.52242 15.9498 3.50011 16.0248 3.47991L15.0269 23.4158ZM11.7264 1.34606L11.6109 1.06812V0.981884L11.793 0.647604C11.798 0.649969 11.803 0.65236 11.8079 0.654777C11.9926 0.744812 12.1458 0.867216 12.2598 1.00871L12.3074 1.06773L11.9654 1.22447L11.9414 1.23547L11.9413 1.23531L11.9295 1.24109C11.8609 1.27475 11.7932 1.30975 11.7264 1.34606ZM12.639 1.49607L12.5207 1.195H12.6491H12.7806C12.9134 1.195 13.0406 1.2057 13.1623 1.22631L13.1384 1.48202L12.9617 1.543H12.6573C12.6513 1.52734 12.6452 1.51169 12.639 1.49607ZM20.8611 4.99569C20.8605 4.99566 20.8599 4.99564 20.8593 4.99561C20.8599 4.99563 20.8605 4.99565 20.8611 4.99567V4.99569Z" fill="#A6A6AA" stroke="#A6A6AA"/>
</g>
<defs>
<clipPath id="clip0_923_838">
<rect width="24" height="24" fill="white"/>
</clipPath>
</defs>
</svg>
